<svg width="16" height="16" viewBox="0 0 16 16" fill="none" xmlns="http://www.w3.org/2000/svg">
<g clip-path="url(#clip0_951_4296)">
<path d="M2.00001 6.00019C1.99997 5.0094 2.2453 4.03403 2.71409 3.16116C3.18287 2.28828 3.86051 1.54509 4.68651 0.997926C5.51251 0.450765 6.46115 0.116669 7.44774 0.0254724C8.43432 -0.0657246 9.42813 0.0888152 10.3404 0.475293C11.2527 0.86177 12.0551 1.46816 12.676 2.2403C13.2968 3.01245 13.7168 3.92633 13.8984 4.90034C14.08 5.87434 14.0175 6.87816 13.7166 7.82215C13.4157 8.76614 12.8858 9.62093 12.174 10.3102C11.971 10.5062 11.815 10.7102 11.721 10.9292L10.959 12.6982C10.9203 12.7878 10.8563 12.8642 10.7747 12.9179C10.6931 12.9716 10.5976 13.0002 10.5 13.0002H5.50001C5.4022 13.0004 5.30649 12.9718 5.22472 12.9182C5.14296 12.8645 5.07874 12.788 5.04001 12.6982L4.27901 10.9282C4.16925 10.6949 4.01542 10.4851 3.82601 10.3102C3.24745 9.7515 2.78753 9.08184 2.47378 8.34127C2.16003 7.60071 1.99889 6.80447 2.00001 6.00019ZM5.00001 14.5002C5.00001 14.3676 5.05268 14.2404 5.14645 14.1466C5.24022 14.0529 5.3674 14.0002 5.50001 14.0002H10.5C10.6326 14.0002 10.7598 14.0529 10.8536 14.1466C10.9473 14.2404 11 14.3676 11 14.5002C11 14.6328 10.9473 14.76 10.8536 14.8537C10.7598 14.9475 10.6326 15.0002 10.5 15.0002L10.276 15.4472C10.193 15.6133 10.0654 15.753 9.90753 15.8506C9.74964 15.9483 9.56767 16.0001 9.38201 16.0002H6.61801C6.43234 16.0001 6.25038 15.9483 6.09248 15.8506C5.93458 15.753 5.807 15.6133 5.72401 15.4472L5.50001 15.0002C5.3674 15.0002 5.24022 14.9475 5.14645 14.8537C5.05268 14.76 5.00001 14.6328 5.00001 14.5002Z" fill="#3C81F6"/>
</g>
<defs>
<clipPath id="clip0_951_4296">
<rect width="16" height="16" fill="white"/>
</clipPath>
</defs>
</svg>
