<svg width="30" height="30" viewBox="0 0 30 30" fill="none" xmlns="http://www.w3.org/2000/svg">
<mask id="mask0_659_1151" style="mask-type:alpha" maskUnits="userSpaceOnUse" x="0" y="0" width="30" height="30">
<rect width="30" height="30" fill="#D9D9D9"/>
</mask>
<g mask="url(#mask0_659_1151)">
<path d="M6.63469 25.625C6.00323 25.625 5.46875 25.4062 5.03125 24.9688C4.59375 24.5312 4.375 23.9968 4.375 23.3653V6.63469C4.375 6.00323 4.59375 5.46875 5.03125 5.03125C5.46875 4.59375 6.00323 4.375 6.63469 4.375H15.0722C15.3378 4.375 15.5604 4.4649 15.74 4.64469C15.9198 4.82448 16.0097 5.04719 16.0097 5.31281C16.0097 5.57865 15.9198 5.80125 15.74 5.98063C15.5604 6.16021 15.3378 6.25 15.0722 6.25H6.63469C6.5224 6.25 6.43021 6.28604 6.35813 6.35813C6.28604 6.43021 6.25 6.5224 6.25 6.63469V23.3653C6.25 23.4776 6.28604 23.5698 6.35813 23.6419C6.43021 23.714 6.5224 23.75 6.63469 23.75H23.3653C23.4776 23.75 23.5698 23.714 23.6419 23.6419C23.714 23.5698 23.75 23.4776 23.75 23.3653V14.9278C23.75 14.6622 23.8399 14.4396 24.0197 14.26C24.1995 14.0802 24.4222 13.9903 24.6878 13.9903C24.9536 13.9903 25.1763 14.0802 25.3556 14.26C25.5352 14.4396 25.625 14.6622 25.625 14.9278V23.3653C25.625 23.9968 25.4062 24.5312 24.9688 24.9688C24.5312 25.4062 23.9968 25.625 23.3653 25.625H6.63469ZM7.98094 20.8653H22.0191L17.6562 15.0481L13.9062 19.9159L11.25 16.5384L7.98094 20.8653ZM21.25 8.75H19.6875C19.4219 8.75 19.1992 8.6601 19.0194 8.48031C18.8398 8.30052 18.75 8.07781 18.75 7.81219C18.75 7.54635 18.8398 7.32375 19.0194 7.14437C19.1992 6.96479 19.4219 6.875 19.6875 6.875H21.25V5.3125C21.25 5.04688 21.3399 4.82427 21.5197 4.64469C21.6995 4.4649 21.9222 4.375 22.1878 4.375C22.4536 4.375 22.6763 4.4649 22.8556 4.64469C23.0352 4.82427 23.125 5.04688 23.125 5.3125V6.875H24.6875C24.9531 6.875 25.1757 6.9649 25.3553 7.14469C25.5351 7.32448 25.625 7.54719 25.625 7.81281C25.625 8.07865 25.5351 8.30125 25.3553 8.48063C25.1757 8.66021 24.9531 8.75 24.6875 8.75H23.125V10.3125C23.125 10.5781 23.0351 10.8008 22.8553 10.9806C22.6755 11.1602 22.4528 11.25 22.1872 11.25C21.9214 11.25 21.6987 11.1602 21.5194 10.9806C21.3398 10.8008 21.25 10.5781 21.25 10.3125V8.75Z" fill="#343434"/>
</g>
</svg>
