<svg width="26" height="26" viewBox="0 0 26 26" fill="none" xmlns="http://www.w3.org/2000/svg">
<path d="M19.5 23.2939V24.9189H10.8333V23.2939H19.5ZM22.2083 20.5856V9.75228C22.2083 8.25651 20.9958 7.04395 19.5 7.04395H10.8333C9.33756 7.04395 8.125 8.25651 8.125 9.75228V20.5856C8.125 22.0814 9.33756 23.2939 10.8333 23.2939V24.9189C8.4401 24.9189 6.5 22.9788 6.5 20.5856V9.75228C6.5 7.35904 8.4401 5.41895 10.8333 5.41895H19.5C21.8932 5.41895 23.8333 7.35904 23.8333 9.75228V20.5856C23.8333 22.9788 21.8932 24.9189 19.5 24.9189V23.2939C20.9958 23.2939 22.2083 22.0814 22.2083 20.5856Z" fill="#545657"/>
<path d="M19.5 23.2939V24.9189M19.5 23.2939H10.8333M19.5 23.2939V24.9189M19.5 23.2939C20.9958 23.2939 22.2083 22.0814 22.2083 20.5856V9.75228C22.2083 8.25651 20.9958 7.04395 19.5 7.04395H10.8333C9.33756 7.04395 8.125 8.25651 8.125 9.75228V20.5856C8.125 22.0814 9.33756 23.2939 10.8333 23.2939M19.5 24.9189H10.8333M19.5 24.9189C21.8932 24.9189 23.8333 22.9788 23.8333 20.5856V9.75228C23.8333 7.35904 21.8932 5.41895 19.5 5.41895H10.8333C8.4401 5.41895 6.5 7.35904 6.5 9.75228V20.5856C6.5 22.9788 8.4401 24.9189 10.8333 24.9189M10.8333 24.9189V23.2939M10.8333 24.9189V23.2939" stroke="#545657" stroke-width="0.2"/>
<path d="M15.3887 1.09082C16.6212 1.15321 17.7176 1.73078 18.4673 2.61237C18.897 3.11769 18.4593 3.79395 17.796 3.79395C17.502 3.79395 17.2321 3.64802 17.0181 3.44641C16.5342 2.9904 15.8835 2.70996 15.166 2.70996H6.49902C5.00364 2.7102 3.79131 3.9226 3.79102 5.41797V16.252C3.7911 16.969 4.07131 17.6193 4.52691 18.1032C4.72829 18.317 4.87402 18.5868 4.87402 18.8806C4.87402 19.544 4.1976 19.9816 3.69235 19.5517C2.81146 18.8021 2.23432 17.7065 2.17188 16.4746L2.16602 16.252V5.41797C2.16631 3.02514 4.10618 1.0852 6.49902 1.08496H15.166L15.3887 1.09082Z" fill="#545657"/>
<path d="M15.3887 1.09082L15.3937 0.990919L15.3913 0.990855L15.3887 1.09082ZM15.166 2.70996V2.60996V2.60996V2.70996ZM6.49902 2.70996V2.60996H6.49901L6.49902 2.70996ZM3.79102 5.41797L3.69102 5.41795V5.41797H3.79102ZM3.79102 16.252H3.69102V16.252L3.79102 16.252ZM2.17188 16.4746L2.07188 16.4772L2.072 16.4797L2.17188 16.4746ZM2.16602 16.252H2.06598L2.06605 16.2546L2.16602 16.252ZM2.16602 5.41797L2.06602 5.41796V5.41797H2.16602ZM6.49902 1.08496V0.984961H6.49901L6.49902 1.08496ZM15.166 1.08496L15.1686 0.984961H15.166V1.08496ZM3.69235 19.5517L3.75715 19.4755L3.69235 19.5517ZM4.52691 18.1032L4.59971 18.0346L4.52691 18.1032ZM17.0181 3.44641L16.9495 3.51919L17.0181 3.44641ZM18.4673 2.61237L18.5435 2.54758L18.4673 2.61237ZM15.3887 1.09082L15.3836 1.19069C16.5876 1.25163 17.6585 1.81572 18.3911 2.67715L18.4673 2.61237L18.5435 2.54758C17.7766 1.64584 16.6549 1.05478 15.3937 0.990948L15.3887 1.09082ZM17.0181 3.44641L17.0867 3.37363C16.5851 2.90094 15.9102 2.60996 15.166 2.60996V2.70996V2.80996C15.8569 2.80996 16.4833 3.07986 16.9495 3.51919L17.0181 3.44641ZM15.166 2.70996V2.60996H6.49902V2.70996V2.80996H15.166V2.70996ZM6.49902 2.70996L6.49901 2.60996C4.94841 2.61021 3.69132 3.86737 3.69102 5.41795L3.79102 5.41797L3.89102 5.41799C3.8913 3.97783 5.05888 2.81019 6.49904 2.80996L6.49902 2.70996ZM3.79102 5.41797H3.69102V16.252H3.79102H3.89102V5.41797H3.79102ZM3.79102 16.252L3.69102 16.252C3.6911 16.9957 3.98185 17.6702 4.4541 18.1717L4.52691 18.1032L4.59971 18.0346C4.16078 17.5685 3.8911 16.9424 3.89102 16.2519L3.79102 16.252ZM3.69235 19.5517L3.75715 19.4755C2.8964 18.7431 2.33274 17.6728 2.27175 16.4695L2.17188 16.4746L2.072 16.4797C2.1359 17.7402 2.72651 18.8611 3.62754 19.6279L3.69235 19.5517ZM2.17188 16.4746L2.27184 16.472L2.26598 16.2493L2.16602 16.252L2.06605 16.2546L2.07191 16.4772L2.17188 16.4746ZM2.16602 16.252H2.26602V5.41797H2.16602H2.06602V16.252H2.16602ZM2.16602 5.41797L2.26602 5.41798C2.26631 3.08037 4.16141 1.1852 6.49903 1.18496L6.49902 1.08496L6.49901 0.984961C4.05094 0.985207 2.06632 2.96991 2.06602 5.41796L2.16602 5.41797ZM6.49902 1.08496V1.18496H15.166V1.08496V0.984961H6.49902V1.08496ZM15.166 1.08496L15.1634 1.18493L15.386 1.19079L15.3887 1.09082L15.3913 0.990855L15.1686 0.984996L15.166 1.08496ZM4.87402 18.8806H4.77402C4.77402 19.1781 4.62255 19.4203 4.42141 19.5403C4.22362 19.6583 3.97517 19.6611 3.75715 19.4755L3.69235 19.5517L3.62754 19.6279C3.91478 19.8723 4.25717 19.8712 4.5239 19.712C4.78729 19.5549 4.97402 19.2465 4.97402 18.8806H4.87402ZM4.52691 18.1032L4.4541 18.1717C4.64461 18.374 4.77402 18.6205 4.77402 18.8806H4.87402H4.97402C4.97402 18.5531 4.81197 18.26 4.59971 18.0346L4.52691 18.1032ZM17.796 3.79395V3.69395C17.5358 3.69395 17.2891 3.56436 17.0867 3.37363L17.0181 3.44641L16.9495 3.51919C17.175 3.73168 17.4683 3.89395 17.796 3.89395V3.79395ZM18.4673 2.61237L18.3911 2.67715C18.5765 2.89519 18.5737 3.14362 18.4557 3.3414C18.3356 3.54251 18.0935 3.69395 17.796 3.69395V3.79395V3.89395C18.1618 3.89395 18.4702 3.70726 18.6274 3.44391C18.7866 3.17722 18.7878 2.83486 18.5435 2.54758L18.4673 2.61237Z" fill="#545657"/>
</svg>
